<svg width="100" height="100" viewBox="0 0 100 100" fill="none" xmlns="http://www.w3.org/2000/svg">
<path d="M50 10C27.91 10 10 28.1904 10 50.6263C10 69.6631 22.9067 85.592 40.3067 90C40.12 89.4515 40 88.8151 40 88.0262V81.0825C38.3767 81.0825 35.6567 81.0825 34.9733 81.0825C32.2367 81.0825 29.8033 79.8874 28.6233 77.6665C27.3133 75.1985 27.0867 71.4236 23.84 69.1147C22.8767 68.3462 23.61 67.4693 24.72 67.5878C26.77 68.1769 28.47 69.6056 30.07 71.7249C31.6633 73.8477 32.4133 74.3284 35.39 74.3284C36.8333 74.3284 38.9933 74.2438 41.0267 73.9187C42.12 71.0986 44.01 68.5019 46.32 67.2763C33 65.8849 26.6433 59.1545 26.6433 50.0169C26.6433 46.0829 28.2933 42.2776 31.0967 39.0715C30.1767 35.8891 29.02 29.3991 31.45 26.9276C37.4433 26.9276 41.0667 30.8752 41.9367 31.9416C44.9233 30.9022 48.2033 30.3132 51.65 30.3132C55.1033 30.3132 58.3967 30.9022 61.39 31.9484C62.25 30.8887 65.8767 26.9276 71.8833 26.9276C74.3233 29.4025 73.1533 35.9196 72.2233 39.0952C75.01 42.2945 76.65 46.0897 76.65 50.0169C76.65 59.1477 70.3033 65.8747 57.0033 67.273C60.6633 69.2129 63.3333 74.6636 63.3333 78.7702V88.0262C63.3333 88.3783 63.2567 88.6323 63.2167 88.9336C78.8033 83.3847 90 68.3529 90 50.6263C90 28.1904 72.09 10 50 10Z" fill="white"/>
</svg>
