<svg width="100" height="100" viewBox="0 0 100 100" fill="none" xmlns="http://www.w3.org/2000/svg">
<path d="M50.0089 29.489C38.6581 29.489 29.5025 38.6467 29.5025 50C29.5025 61.3533 38.6581 70.511 50.0089 70.511C61.3597 70.511 70.5153 61.3533 70.5153 50C70.5153 38.6467 61.3597 29.489 50.0089 29.489ZM50.0089 63.3348C42.6737 63.3348 36.6771 57.3547 36.6771 50C36.6771 42.6453 42.6559 36.6652 50.0089 36.6652C57.362 36.6652 63.3408 42.6453 63.3408 50C63.3408 57.3547 57.3441 63.3348 50.0089 63.3348ZM76.1372 28.65C76.1372 31.3098 73.9955 33.4341 71.3542 33.4341C68.6949 33.4341 66.5711 31.292 66.5711 28.65C66.5711 26.008 68.7128 23.8659 71.3542 23.8659C73.9955 23.8659 76.1372 26.008 76.1372 28.65ZM89.7189 33.5055C89.4155 27.097 87.952 21.4203 83.2582 16.7433C78.5823 12.0663 72.9069 10.6025 66.4997 10.2812C59.8963 9.90628 40.1037 9.90628 33.5003 10.2812C27.111 10.5846 21.4356 12.0484 16.7418 16.7254C12.048 21.4024 10.6023 27.0791 10.2811 33.4877C9.9063 40.0926 9.9063 59.8895 10.2811 66.4945C10.5845 72.903 12.048 78.5797 16.7418 83.2567C21.4356 87.9337 27.0931 89.3975 33.5003 89.7188C40.1037 90.0937 59.8963 90.0937 66.4997 89.7188C72.9069 89.4154 78.5823 87.9516 83.2582 83.2567C87.9342 78.5797 89.3977 72.903 89.7189 66.4945C90.0937 59.8895 90.0937 40.1105 89.7189 33.5055ZM81.188 73.5814C79.7959 77.0802 77.1009 79.7757 73.585 81.186C68.3201 83.2746 55.8271 82.7926 50.0089 82.7926C44.1907 82.7926 31.6799 83.2567 26.4328 81.186C22.9347 79.7936 20.2398 77.0981 18.8299 73.5814C16.7418 68.3153 17.2236 55.8195 17.2236 50C17.2236 44.1805 16.7596 31.6669 18.8299 26.4186C20.222 22.9198 22.9169 20.2243 26.4328 18.814C31.6977 16.7254 44.1907 17.2074 50.0089 17.2074C55.8271 17.2074 68.338 16.7433 73.585 18.814C77.0831 20.2064 79.778 22.9019 81.188 26.4186C83.2761 31.6847 82.7942 44.1805 82.7942 50C82.7942 55.8195 83.2761 68.3331 81.188 73.5814Z" fill="white"/>
</svg>
