<svg width="100" height="100" viewBox="0 0 100 100" fill="none" xmlns="http://www.w3.org/2000/svg">
<path d="M23.7955 24.0258C26.3878 26.0458 27.3608 25.8925 32.2326 25.5791L78.1539 22.9358C79.1269 22.9358 78.3173 22.0025 77.9941 21.8491L70.3631 16.5592C68.9037 15.4725 66.9542 14.2258 63.2221 14.5358L18.7603 17.6492C17.141 17.8025 16.8144 18.5825 17.4607 19.2025L23.7955 24.0258ZM26.5511 34.2925V80.639C26.5511 83.129 27.8473 84.0624 30.7697 83.9057L81.2362 81.1057C84.1586 80.9524 84.4853 79.239 84.4853 77.2157V31.1791C84.4853 29.1591 83.6756 28.0691 81.886 28.2225L29.1469 31.1791C27.2009 31.3358 26.5511 32.2725 26.5511 34.2925ZM76.3713 36.7758C76.6945 38.1758 76.3713 39.5758 74.9118 39.7358L72.4794 40.2024V74.4157C70.3666 75.5057 68.4206 76.129 66.7978 76.129C64.1986 76.129 63.5488 75.349 61.6028 73.019L45.698 49.0658V72.239L50.7297 73.3324C50.7297 73.3324 50.7297 76.1324 46.671 76.1324L35.4748 76.7524C35.1516 76.1324 35.4748 74.5757 36.6111 74.2657L39.53 73.489V42.8458L35.4817 42.5324C35.1551 41.1324 35.9682 39.1124 38.2373 38.9558L50.2467 38.1791L66.8013 62.4424V40.9758L62.5793 40.5124C62.2561 38.7991 63.5523 37.5558 65.1751 37.4024L76.3713 36.7758ZM15.0282 13.4492L61.2796 10.1825C66.9577 9.71584 68.4206 10.0258 71.9894 12.5158L86.7544 22.4691C89.1869 24.1791 90 24.6458 90 26.5125V81.1057C90 84.5257 88.7039 86.5523 84.1621 86.859L30.4465 89.9723C27.0411 90.129 25.4148 89.6623 23.6287 87.4823L12.7556 73.949C10.8097 71.459 10 69.5957 10 67.4157V18.8892C10 16.0925 11.2996 13.7558 15.0282 13.4492Z" fill="white"/>
</svg>
