<svg width="100" height="100" viewBox="0 0 100 100" fill="none" xmlns="http://www.w3.org/2000/svg">
<path d="M50 10C72.0922 10 90 27.9078 90 50C90 72.0922 72.0922 90 50 90C27.9078 90 10 72.0922 10 50C10 27.9078 27.9078 10 50 10ZM63.7983 66.3043C64.5339 64.047 67.9809 41.5496 68.407 37.1165C68.5356 35.7739 68.1113 34.8817 67.28 34.4835C66.2748 34 64.7861 34.2417 63.0591 34.8643C60.6904 35.7183 30.4087 48.5756 28.6591 49.32C27 50.0243 25.4313 50.793 25.4313 51.9061C25.4313 52.6887 25.8957 53.1287 27.1757 53.5861C28.5078 54.0609 31.8626 55.0783 33.8435 55.6243C35.7513 56.1513 37.9235 55.6939 39.1409 54.9374C40.4313 54.1357 55.3235 44.1704 56.393 43.2974C57.4609 42.4243 58.313 43.5426 57.44 44.4174C56.567 45.2904 46.3443 55.2122 44.9965 56.5861C43.36 58.2539 44.5217 59.9826 45.6191 60.6748C46.873 61.4643 55.8904 67.513 57.2487 68.4835C58.607 69.4539 59.9843 69.8939 61.2452 69.8939C62.5061 69.8939 63.1704 68.233 63.7983 66.3043Z" fill="white"/>
</svg>
